<svg width="inherit" height="inherit" viewBox="0 0 24 25" fill="none" xmlns="http://www.w3.org/2000/svg">
<g id="Frame" clip-path="url(#clip0_289_791)">
<path id="Vector" d="M23.4772 3.35322C24.1798 2.62789 24.0679 1.55056 23.2223 0.947888C22.3767 0.345222 21.1208 0.441222 20.4182 1.16656L11.9995 9.83322L3.58085 1.16656C2.87826 0.441222 1.62231 0.345222 0.77671 0.947888C-0.0688857 1.55056 -0.180803 2.62789 0.521788 3.35322L9.40676 12.4999L0.521788 21.6466C-0.180803 22.3719 -0.0688857 23.4492 0.77671 24.0519C1.62231 24.6546 2.87826 24.5586 3.58085 23.8332L11.9995 15.1666L20.4182 23.8332C21.1208 24.5586 22.3767 24.6546 23.2223 24.0519C24.0679 23.4492 24.1798 22.3719 23.4772 21.6466L14.5923 12.4999L23.4772 3.35322Z" fill="white"/>
</g>
<defs>
<clipPath id="clip0_289_791">
<rect width="24" height="24" fill="white" transform="translate(0 0.5)"/>
</clipPath>
</defs>
</svg>
