<svg width="20" height="20" viewBox="0 0 20 20" fill="none" xmlns="http://www.w3.org/2000/svg">
<mask id="mask0_544_1076" style="mask-type:luminance" maskUnits="userSpaceOnUse" x="0" y="0" width="20" height="20">
<path d="M20 0H0V20H20V0Z" fill="white"/>
</mask>
<g mask="url(#mask0_544_1076)">
<path d="M19.6 10.2273C19.6 9.51816 19.5364 8.83636 19.4182 8.18176H10V12.05H15.3818C15.15 13.3 14.4455 14.3591 13.3864 15.0682V17.5773H16.6182C18.5091 15.8364 19.6 13.2727 19.6 10.2273Z" fill="#4285F4"/>
<path d="M10.0009 20C12.7009 20 14.9645 19.1045 16.619 17.5773L13.3872 15.0682C12.4918 15.6682 11.3463 16.0227 10.0009 16.0227C7.39625 16.0227 5.19175 14.2636 4.40535 11.9H1.06445V14.4909C2.70995 17.7591 6.09175 20 10.0009 20Z" fill="#34A853"/>
<path d="M4.4045 11.9001C4.2045 11.3001 4.0909 10.6592 4.0909 10.0001C4.0909 9.34096 4.2045 8.70006 4.4045 8.10006V5.50916H1.0636C0.3864 6.85916 0 8.38646 0 10.0001C0 11.6137 0.3864 13.141 1.0636 14.491L4.4045 11.9001Z" fill="#FBBC04"/>
<path d="M10.0009 3.9773C11.469 3.9773 12.7872 4.4818 13.8236 5.4727L16.6918 2.6045C14.96 0.9909 12.6963 0 10.0009 0C6.09175 0 2.70995 2.2409 1.06445 5.5091L4.40535 8.1C5.19175 5.7364 7.39625 3.9773 10.0009 3.9773Z" fill="#E94235"/>
</g>
</svg>
