<svg width="32" height="32" viewBox="2 2 28 28" fill="none" xmlns="http://www.w3.org/2000/svg">
<path d="M15.9995 6.2002C9.62612 6.2002 4.43945 11.3869 4.43945 17.7602C4.43945 24.1335 9.62612 29.3335 15.9995 29.3335C22.3728 29.3335 27.5595 24.1469 27.5595 17.7735C27.5595 11.4002 22.3728 6.2002 15.9995 6.2002ZM16.9995 17.3335C16.9995 17.8802 16.5461 18.3335 15.9995 18.3335C15.4528 18.3335 14.9995 17.8802 14.9995 17.3335V10.6669C14.9995 10.1202 15.4528 9.66686 15.9995 9.66686C16.5461 9.66686 16.9995 10.1202 16.9995 10.6669V17.3335Z" fill="white"/>
<path d="M19.8542 4.59984H12.1475C11.6142 4.59984 11.1875 4.17317 11.1875 3.63984C11.1875 3.1065 11.6142 2.6665 12.1475 2.6665H19.8542C20.3875 2.6665 20.8142 3.09317 20.8142 3.6265C20.8142 4.15984 20.3875 4.59984 19.8542 4.59984Z" fill="white"/>
</svg>
